<?xml version="1.0" encoding="UTF-8"?>
<!DOCTYPE svg PUBLIC "-//W3C//DTD SVG 1.1//EN" "http://www.w3.org/Graphics/SVG/1.1/DTD/svg11.dtd">
<svg xmlns="http://www.w3.org/2000/svg" version="1.1" width="704px" height="198px" style="shape-rendering:geometricPrecision; text-rendering:geometricPrecision; image-rendering:optimizeQuality; fill-rule:evenodd; clip-rule:evenodd" xmlns:xlink="http://www.w3.org/1999/xlink">
<g><path style="opacity:0.926" fill="#fe5000" d="M 76.5,5.5 C 81.6551,4.88952 86.3218,6.05618 90.5,9C 99.2267,11.3675 107.56,10.3675 115.5,6C 124.863,5.37801 127.53,9.37801 123.5,18C 107.227,26.7588 91.0599,26.5922 75,17.5C 72.7844,13.1322 73.2844,9.13222 76.5,5.5 Z"/></g>
<g><path style="opacity:0.926" fill="#fe5000" d="M 51.5,15.5 C 53.5273,15.3379 55.5273,15.5045 57.5,16C 80.4553,37.5543 105.455,40.2209 132.5,24C 135.203,20.962 138.203,18.2954 141.5,16C 149.788,14.7087 152.955,18.2087 151,26.5C 127.049,49.7554 99.5494,54.9221 68.5,42C 60.461,37.9572 53.6276,32.4572 48,25.5C 46.7563,21.191 47.9229,17.8577 51.5,15.5 Z"/></g>
<g><path style="opacity:0.935" fill="#fe5000" d="M 33.5,30.5 C 35.6547,30.372 37.6547,30.872 39.5,32C 65.3093,58.3682 95.6426,65.3682 130.5,53C 141.759,48.2035 151.425,41.2035 159.5,32C 165.606,29.5527 169.273,31.5527 170.5,38C 170.458,39.9674 169.958,41.8008 169,43.5C 140.167,70.3333 111.333,97.1667 82.5,124C 117.15,119.658 146.316,130.158 170,155.5C 171.529,162.631 168.696,166.131 161.5,166C 152.952,157.452 143.285,150.452 132.5,145C 97.0053,131.098 66.0053,137.765 39.5,165C 29.5853,167.073 26.4186,163.24 30,153.5C 58.8019,127.033 87.3019,100.199 115.5,73C 81.1453,77.109 52.3119,66.609 29,41.5C 27.3887,36.3009 28.8887,32.6342 33.5,30.5 Z"/></g>
<g><path style="opacity:0.924" fill="#fe5000" d="M 16.5,51.5 C 19.9783,51.1842 23.3117,51.6842 26.5,53C 43.8985,70.3158 64.8985,80.4824 89.5,83.5C 68.0108,104.155 46.3441,124.655 24.5,145C 15.2564,146.762 12.0898,143.262 15,134.5C 30.0118,120.321 44.8452,105.988 59.5,91.5C 45.8971,86.3704 33.5638,79.2037 22.5,70C 19.2959,67.1312 16.4626,63.9646 14,60.5C 13.5145,57.1244 14.3479,54.1244 16.5,51.5 Z"/></g>
<g><path style="opacity:0.924" fill="#fe5000" d="M 174.5,51.5 C 183.322,50.5223 186.488,54.189 184,62.5C 169.135,77.0335 153.968,91.2001 138.5,105C 155.781,111.621 170.947,121.455 184,134.5C 186.12,144.366 182.286,147.532 172.5,144C 154.965,126.901 133.965,116.734 109.5,113.5C 131.187,92.8118 152.854,72.1452 174.5,51.5 Z"/></g>
<g><path style="opacity:0.944" fill="#fe5000" d="M 259.5,65.5 C 265.176,64.166 268.843,66.166 270.5,71.5C 274.796,72.3275 279.129,72.8275 283.5,73C 290.268,76.3722 292.935,81.8722 291.5,89.5C 295.182,89.3347 298.848,89.5014 302.5,90C 307.235,91.0681 310.402,93.9014 312,98.5C 318.174,123.488 308.674,133.822 283.5,129.5C 258.326,133.822 248.826,123.488 255,98.5C 256.598,93.9014 259.765,91.0681 264.5,90C 268.821,89.501 273.154,89.3343 277.5,89.5C 277.67,88.1779 277.337,87.0113 276.5,86C 265.312,88.4195 258.312,84.2529 255.5,73.5C 255.782,70.2691 257.115,67.6024 259.5,65.5 Z M 268.5,103.5 C 278.172,103.334 287.839,103.5 297.5,104C 298.795,107.786 298.795,111.62 297.5,115.5C 288.548,116.639 279.548,116.805 270.5,116C 268.611,112.164 267.945,107.997 268.5,103.5 Z"/></g>
<g><path style="opacity:0.954" fill="#fe5000" d="M 321.5,67.5 C 338.17,67.3334 354.837,67.5001 371.5,68C 375.058,69.8917 377.558,72.7251 379,76.5C 379.667,91.1667 379.667,105.833 379,120.5C 377.5,124.667 374.667,127.5 370.5,129C 357.167,129.667 343.833,129.667 330.5,129C 326.725,127.558 323.892,125.058 322,121.5C 321.333,115.833 321.333,110.167 322,104.5C 325.659,100.885 329.659,100.552 334,103.5C 334.659,107.926 335.825,112.092 337.5,116C 346.167,116.667 354.833,116.667 363.5,116C 364,115.5 364.5,115 365,114.5C 365.667,103.5 365.667,92.5 365,81.5C 360.263,80.5308 355.43,80.1975 350.5,80.5C 350.666,84.8461 350.499,89.1794 350,93.5C 344.785,98.0192 340.451,97.3525 337,91.5C 336.501,87.8484 336.335,84.1817 336.5,80.5C 331.041,80.8967 325.708,80.3967 320.5,79C 317.751,74.9082 318.084,71.0748 321.5,67.5 Z"/></g>
<g><path style="opacity:0.945" fill="#fe5000" d="M 395.5,67.5 C 410.504,67.3334 425.504,67.5001 440.5,68C 445.351,69.8691 448.184,73.3691 449,78.5C 449.667,91.8333 449.667,105.167 449,118.5C 447.771,123.814 444.605,127.314 439.5,129C 425.406,129.964 411.406,129.631 397.5,128C 393.973,125.784 391.806,122.617 391,118.5C 390.333,112.5 390.333,106.5 391,100.5C 392.433,95.4018 395.6,91.9018 400.5,90C 412.162,89.5001 423.829,89.3335 435.5,89.5C 435.98,86.3148 435.314,83.4815 433.5,81C 420.788,80.8145 408.121,80.3145 395.5,79.5C 391.514,75.4655 391.514,71.4655 395.5,67.5 Z M 405.5,103.5 C 415.5,103.5 425.5,103.5 435.5,103.5C 437.536,115.935 432.369,120.268 420,116.5C 407.085,120.322 402.252,115.988 405.5,103.5 Z"/></g>
<g><path style="opacity:0.951" fill="#fe5000" d="M 468.5,67.5 C 482.171,67.3334 495.837,67.5001 509.5,68C 513.641,69.4741 516.474,72.3074 518,76.5C 518.667,90.8333 518.667,105.167 518,119.5C 516.932,124.235 514.099,127.402 509.5,129C 496.167,129.667 482.833,129.667 469.5,129C 466.461,127.969 463.961,126.135 462,123.5C 460.419,117.277 460.085,110.944 461,104.5C 465,100.5 469,100.5 473,104.5C 474.05,108.304 474.884,112.137 475.5,116C 484.5,116.667 493.5,116.667 502.5,116C 503,115.5 503.5,115 504,114.5C 504.667,103.833 504.667,93.1667 504,82.5C 503.5,82 503,81.5 502.5,81C 493.5,80.3333 484.5,80.3333 475.5,81C 474.907,84.6452 473.574,87.9785 471.5,91C 468.833,91.6667 466.167,91.6667 463.5,91C 462.333,90.5 461.5,89.6667 461,88.5C 459.89,82.5743 460.556,76.9077 463,71.5C 464.812,70.0229 466.645,68.6896 468.5,67.5 Z"/></g>
<g><path style="opacity:0.948" fill="#fe5000" d="M 539.5,67.5 C 560.169,67.3334 580.836,67.5 601.5,68C 605.585,72.3397 605.251,76.3397 600.5,80C 582.5,80.3333 564.5,80.6667 546.5,81C 544.686,83.4815 544.02,86.3148 544.5,89.5C 563.235,89.0387 581.902,89.5387 600.5,91C 603.728,92.5629 605.895,95.0629 607,98.5C 607.667,107.5 607.667,116.5 607,125.5C 606.535,126.931 605.701,128.097 604.5,129C 601.833,129.667 599.167,129.667 596.5,129C 595.299,128.097 594.465,126.931 594,125.5C 593.815,118.253 593.315,111.087 592.5,104C 587.292,102.603 581.959,102.103 576.5,102.5C 576.666,110.174 576.5,117.841 576,125.5C 574.982,128.683 572.815,130.016 569.5,129.5C 566.675,129.881 564.509,128.881 563,126.5C 562.5,118.507 562.334,110.507 562.5,102.5C 556.5,102.5 550.5,102.5 544.5,102.5C 544.666,110.507 544.5,118.507 544,126.5C 540.341,130.115 536.341,130.448 532,127.5C 531.667,126.5 531.333,125.5 531,124.5C 530.333,109.167 530.333,93.8333 531,78.5C 531.93,73.2826 534.763,69.6159 539.5,67.5 Z"/></g>
<g><path style="opacity:0.933" fill="#fe5000" d="M 628.5,67.5 C 641.837,67.3334 655.171,67.5001 668.5,68C 673.336,69.8186 676.169,73.3186 677,78.5C 677.667,93.5 677.667,108.5 677,123.5C 675.593,129.061 672.093,130.895 666.5,129C 664.462,127.764 663.295,125.931 663,123.5C 662.667,109.5 662.333,95.5 662,81.5C 653,80.1667 644,80.1667 635,81.5C 633.698,96.4073 633.032,111.407 633,126.5C 631.704,128.815 629.704,129.815 627,129.5C 623.279,129.779 620.945,128.112 620,124.5C 619.333,109.167 619.333,93.8333 620,78.5C 620.945,73.2332 623.779,69.5665 628.5,67.5 Z"/></g>
<g><path style="opacity:0.921" fill="#fe5000" d="M 9.5,76.5 C 12.3198,76.2475 14.9865,76.7475 17.5,78C 25.3607,84.0899 33.3607,89.9232 41.5,95.5C 33.3438,103.489 25.0105,111.322 16.5,119C 8.01256,121.493 4.51256,118.327 6,109.5C 10.1396,105.36 14.3063,101.194 18.5,97C 13.6977,94.1927 9.53103,90.6927 6,86.5C 4.58117,82.0823 5.74784,78.7489 9.5,76.5 Z"/></g>
<g><path style="opacity:0.916" fill="#fe5000" d="M 184.5,76.5 C 191.685,76.8482 194.519,80.5149 193,87.5C 188.833,91.6667 184.667,95.8333 180.5,100C 185.302,102.807 189.469,106.307 193,110.5C 193.877,119.489 190.044,122.322 181.5,119C 173.639,112.91 165.639,107.077 157.5,101.5C 166.22,92.7772 175.22,84.4439 184.5,76.5 Z"/></g>
<g><path style="opacity:0.93" fill="#fe5000" d="M 87.5,148.5 C 109.224,145.928 128.558,151.428 145.5,165C 150.231,167.956 152.064,172.122 151,177.5C 148.839,181.124 145.672,182.291 141.5,181C 118.492,159.51 93.492,156.843 66.5,173C 63.3119,175.432 60.3119,178.099 57.5,181C 49.1095,182.275 45.9429,178.775 48,170.5C 58.8284,158.839 71.995,151.505 87.5,148.5 Z"/></g>
<g><path style="opacity:0.924" fill="#fe5000" d="M 91.5,172.5 C 100.428,171.839 109.095,173.005 117.5,176C 125.274,178.386 127.274,183.053 123.5,190C 121.801,190.958 119.967,191.458 118,191.5C 111.904,189.025 105.571,187.358 99,186.5C 93.4928,186.835 88.3261,188.335 83.5,191C 75.164,192.327 71.9974,188.827 74,180.5C 79.3623,176.565 85.1956,173.898 91.5,172.5 Z"/></g>
</svg>
